<svg width="96" height="96" viewBox="0 0 96 96" fill="none" xmlns="http://www.w3.org/2000/svg">
  <defs>
    <linearGradient id="paint0_linear" x1="12" y1="12" x2="84" y2="84" gradientUnits="userSpaceOnUse">
      <stop stop-color="#2563EB" />
      <stop offset="0.5" stop-color="#4F46E5" />
      <stop offset="1" stop-color="#1E3A8A" />
    </linearGradient>
    <linearGradient id="paint1_linear" x1="26" y1="30" x2="70" y2="66" gradientUnits="userSpaceOnUse">
      <stop stop-color="#F97316" />
      <stop offset="1" stop-color="#FACC15" />
    </linearGradient>
  </defs>
  <rect x="8" y="8" width="80" height="80" rx="24" fill="url(#paint0_linear)" />
  <path d="M28 32C28 29.7909 29.7909 28 32 28H60C62.2091 28 64 29.7909 64 32V36C64 38.2091 62.2091 40 60 40H36V44H56C58.2091 44 60 45.7909 60 48V52C60 54.2091 58.2091 56 56 56H36V60H64C66.2091 60 68 61.7909 68 64V68C68 70.2091 66.2091 72 64 72H32C29.7909 72 28 70.2091 28 68V32Z" fill="white" fill-opacity="0.95" />
  <path d="M42 36H68L54 66C52.905 68.19 49.595 68.19 48.5 66L42 53.5" stroke="url(#paint1_linear)" stroke-width="6" stroke-linecap="round" stroke-linejoin="round" />
</svg>
